<?xml version="1.0" encoding="UTF-8"?>
<svg width="800" height="480" version="1.1" viewBox="0 0 800 480" xmlns="http://www.w3.org/2000/svg" xmlns:cc="http://creativecommons.org/ns#" xmlns:dc="http://purl.org/dc/elements/1.1/" xmlns:rdf="http://www.w3.org/1999/02/22-rdf-syntax-ns#">
 <metadata>
  <rdf:RDF>
   <cc:Work rdf:about="">
    <dc:format>image/svg+xml</dc:format>
    <dc:type rdf:resource="http://purl.org/dc/dcmitype/StillImage"/>
    <dc:title/>
   </cc:Work>
  </rdf:RDF>
 </metadata>
 <path d="m0 240v-240h800v480h-800z" fill="#fefefe"/>
 <path d="m0 368v-112h8v-48h-8v-48h8v-16h-8v-64h8v-16h-8v-64h800v480h-120v-16h-16v16h-664zm96 92v-12h-24v24h24zm16 8v-4h-8v8h8zm568-20v-8h-16v16h16zm-544-60v-4h-24v8h24zm72 0v-4h-64v8h64zm472-12v-8h-16v16h16zm-392-12v-12h-24v24h24zm-216 0v-4h-8v8h8zm80 0v-4h-48v8h48zm528-60v-8h-16v16h16zm0-48v-8h-16v16h16zm-608-20v-4h-8v8h8zm80 0v-4h-48v8h48zm136-64v-12h-24v24h24zm392 4v-8h-16v16h16zm-608-44v-4h-8v8h8zm56 0v-4h-24v8h24zm552-4v-8h-16v16h16zm0-56v-8h-16v16h16zm-536-52v-4h-48v8h48zm64 0v-4h-56v8h56zm184 0v-4h-104v8h104zm248-4v-8h-16v16h16z" fill="#feae99"/>
 <path d="m0 368v-112h8v-48h-8v-48h8v-16h-8v-64h8v-16h-8v-64h800v480h-120v-16h-16v16h-664zm96 92v-12h-24v24h24zm16 8v-4h-8v8h8zm568-20v-8h-16v16h16zm-544-60v-4h-24v8h24zm72 0v-4h-64v8h64zm472-12v-8h-16v16h16zm-392-12v-12h-24v24h24zm-216 0v-4h-8v8h8zm80 0v-4h-48v8h48zm528-60v-8h-16v16h16zm0-48v-8h-16v16h16zm-632-24v-16h-32v32h32zm24 4v-4h-8v8h8zm80 0v-4h-48v8h48zm136-64v-12h-24v24h24zm392 4v-8h-16v16h16zm-608-44v-4h-8v8h8zm56 0v-4h-24v8h24zm552-4v-8h-16v16h16zm0-56v-8h-16v16h16zm-536-52v-4h-48v8h48zm64 0v-4h-56v8h56zm184 0v-4h-104v8h104zm248-4v-8h-16v16h16z" fill="#edc739"/>
 <path d="m0 368v-112h8v-48h-8v-48h8v-16h-8v-64h8v-16h-8v-64h800v480h-120v-16h-16v16h-664zm96 92v-12h-24v24h24zm16 8v-4h-8v8h8zm568-20v-8h-16v16h16zm-544-60v-4h-24v8h24zm72 0v-4h-64v8h64zm472-12v-8h-16v16h16zm-392-12v-12h-24v24h24zm-216 0v-4h-8v8h8zm80 0v-4h-48v8h48zm168-48v-12h-24v24h24zm32 0v-12h-24v24h24zm328-12v-8h-16v16h16zm0-48v-8h-16v16h16zm-632-24v-16h-32v32h32zm24 4v-4h-8v8h8zm80 0v-4h-48v8h48zm136-64v-12h-24v24h24zm392 4v-8h-16v16h16zm-608-44v-4h-8v8h8zm56 0v-4h-24v8h24zm552-4v-8h-16v16h16zm0-56v-8h-16v16h16zm-536-52v-4h-48v8h48zm64 0v-4h-56v8h56zm184 0v-4h-104v8h104zm248-4v-8h-16v16h16z" fill="#5e96e4"/>
 <path d="m0 368v-112h8v-48h-8v-48h8v-16h-8v-64h8v-16h-8v-64h800v480h-24v-8h-48v8h-8v-8h-32v8h-8v-16h-16v16h-664zm96 92v-12h-24v24h24zm16 8v-4h-8v8h8zm568-20v-8h-16v16h16zm72 4v-4h-64v8h64zm-16-24v-4h-48v8h48zm-384-8v-4h-56v8h56zm352-16v-4h-16v8h16zm56 0v-4h-48v8h48zm-624-16v-4h-24v8h24zm72 0v-4h-64v8h64zm472-12v-8h-16v16h16zm72 4v-4h-64v8h64zm-464-16v-12h-24v24h24zm-216 0v-4h-8v8h8zm80 0v-4h-48v8h48zm576-8v-4h-40v8h40zm8-24v-4h-48v8h48zm-416-16v-12h-24v24h24zm32 0v-12h-24v24h24zm328-12v-8h-16v16h16zm40 4v-4h-32v8h32zm-672-36v-16h-32v32h32zm656 12v-4h-16v8h16zm-352-8v-4h-56v8h56zm328-20v-8h-16v16h16zm64 4v-4h-56v8h56zm-696-28v-16h-32v32h32zm24 4v-4h-8v8h8zm80 0v-4h-48v8h48zm568 0v-4h-32v8h32zm-432-64v-12h-24v24h24zm392 4v-8h-16v16h16zm-608-44v-4h-8v8h8zm56 0v-4h-24v8h24zm552-4v-8h-16v16h16zm-632-56v-16h-32v32h32zm632 0v-8h-16v16h16zm-536-52v-4h-48v8h48zm64 0v-4h-56v8h56zm184 0v-4h-104v8h104zm248-4v-8h-16v16h16z" fill="#f18e23"/>
 <path d="m0 368v-112h8v-48h-8v-48h8v-16h-8v-64h8v-16h-8v-64h800v480h-24v-8h-48v8h-8v-8h-32v8h-8v-16h-16v16h-664zm96 92v-12h-24v24h24zm16 8v-4h-8v8h8zm568-20v-8h-16v16h16zm72 4v-4h-64v8h64zm-16-24v-4h-48v8h48zm-384-8v-4h-56v8h56zm352-16v-4h-16v8h16zm56 0v-4h-48v8h48zm-624-16v-4h-24v8h24zm72 0v-4h-64v8h64zm128 0v-4h-40v8h40zm344-12v-8h-16v16h16zm72 4v-4h-64v8h64zm-464-16v-12h-24v24h24zm-216 0v-4h-8v8h8zm80 0v-4h-48v8h48zm528-12v-8h-16v16h16zm48 4v-4h-40v8h40zm8-24v-4h-48v8h48zm-416-16v-12h-24v24h24zm32 0v-12h-24v24h24zm328-12v-8h-16v16h16zm40 4v-4h-32v8h32zm-672-36v-16h-32v32h32zm632 8v-8h-16v16h16zm24 4v-4h-16v8h16zm-352-8v-4h-56v8h56zm328-20v-8h-16v16h16zm64 4v-4h-56v8h56zm-696-28v-16h-32v32h32zm24 4v-4h-8v8h8zm80 0v-4h-48v8h48zm568 0v-4h-32v8h32zm-672-44v-16h-32v32h32zm240-20v-12h-24v24h24zm392 4v-8h-16v16h16zm80 4v-4h-72v8h72zm-32-24v-4h-40v8h40zm-656-24v-4h-8v8h8zm56 0v-4h-24v8h24zm552-4v-8h-16v16h16zm64 4v-4h-56v8h56zm-408-32v-4h-40v8h40zm-288-28v-16h-32v32h32zm632 0v-8h-16v16h16zm-536-52v-4h-48v8h48zm64 0v-4h-56v8h56zm184 0v-4h-104v8h104zm248-4v-8h-16v16h16z" fill="#f95445"/>
 <path d="m0 368v-112h8v-48h-8v-48h8v-16h-8v-64h8v-16h-8v-64h800v480h-24v-8h-48v8h-8v-8h-32v8h-8v-16h-16v16h-664zm96 92v-12h-24v24h24zm16 8v-4h-8v8h8zm568-20v-8h-16v16h16zm72 4v-4h-64v8h64zm-16-24v-4h-48v8h48zm-384-8v-4h-56v8h56zm352-16v-4h-16v8h16zm56 0v-4h-48v8h48zm-624-16v-4h-24v8h24zm72 0v-4h-64v8h64zm128 0v-4h-40v8h40zm344-12v-8h-16v16h16zm72 4v-4h-64v8h64zm-464-16v-12h-24v24h24zm-216 0v-4h-8v8h8zm80 0v-4h-48v8h48zm528-12v-8h-16v16h16zm48 4v-4h-40v8h40zm8-24v-4h-48v8h48zm-416-16v-12h-24v24h24zm32 0v-12h-24v24h24zm328-12v-8h-16v16h16zm40 4v-4h-32v8h32zm-672-36v-16h-32v32h32zm632 8v-8h-16v16h16zm24 4v-4h-16v8h16zm-352-8v-4h-56v8h56zm328-20v-8h-16v16h16zm64 4v-4h-56v8h56zm-696-28v-16h-32v32h32zm24 4v-4h-8v8h8zm80 0v-4h-48v8h48zm568 0v-4h-32v8h32zm-672-44v-16h-32v32h32zm240-20v-12h-24v24h24zm392 4v-8h-16v16h16zm80 4v-4h-72v8h72zm-712-28v-16h-32v32h32zm680 4v-4h-40v8h40zm-656-24v-4h-8v8h8zm56 0v-4h-24v8h24zm552-4v-8h-16v16h16zm64 4v-4h-56v8h56zm-408-32v-4h-40v8h40zm-288-28v-16h-32v32h32zm632 0v-8h-16v16h16zm-536-52v-4h-48v8h48zm64 0v-4h-56v8h56zm184 0v-4h-104v8h104zm248-4v-8h-16v16h16z" fill="#626eba"/>
 <path d="m0 368v-112h8v-48h-8v-48h8v-16h-8v-64h8v-16h-8v-64h800v480h-24v-8h-48v8h-8v-8h-32v8h-8v-16h-16v16h-664zm96 92v-12h-24v24h24zm16 8v-4h-8v8h8zm568-20v-8h-16v16h16zm72 4v-4h-64v8h64zm-464-28v-8h-24v16h24zm392 0v-8h-16v16h16zm56 4v-4h-48v8h48zm-384-8v-4h-56v8h56zm352-16v-4h-16v8h16zm56 0v-4h-48v8h48zm-624-16v-4h-24v8h24zm72 0v-4h-64v8h64zm128 0v-4h-40v8h40zm344-12v-8h-16v16h16zm72 4v-4h-64v8h64zm-464-16v-12h-24v24h24zm-216 0v-4h-8v8h8zm80 0v-4h-48v8h48zm528-12v-8h-16v16h16zm48 4v-4h-40v8h40zm8-24v-4h-48v8h48zm-416-16v-12h-24v24h24zm32 0v-12h-24v24h24zm328-12v-8h-16v16h16zm40 4v-4h-32v8h32zm-432-24v-12h-24v24h24zm-240-12v-16h-32v32h32zm632 8v-8h-16v16h16zm24 4v-4h-16v8h16zm-352-8v-4h-56v8h56zm328-20v-8h-16v16h16zm64 4v-4h-56v8h56zm-696-28v-16h-32v32h32zm24 4v-4h-8v8h8zm80 0v-4h-48v8h48zm568 0v-4h-32v8h32zm-672-44v-16h-32v32h32zm240-20v-12h-24v24h24zm392 4v-8h-16v16h16zm80 4v-4h-72v8h72zm-712-28v-16h-32v32h32zm680 4v-4h-40v8h40zm-656-24v-4h-8v8h8zm56 0v-4h-24v8h24zm552-4v-8h-16v16h16zm64 4v-4h-56v8h56zm-408-32v-4h-40v8h40zm-288-28v-16h-32v32h32zm632 0v-8h-16v16h16zm-536-52v-4h-48v8h48zm64 0v-4h-56v8h56zm184 0v-4h-104v8h104zm248-4v-8h-16v16h16z" fill="#838282"/>
 <path d="m0 368v-112h8v-48h-8v-48h8v-16h-8v-64h8v-16h-8v-64h800v480h-24v-8h-48v8h-8v-8h-32v8h-8v-16h-16v16h-664zm96 92v-12h-24v24h24zm16 8v-4h-8v8h8zm56 0v-4h-48v8h48zm24-4v-8h-16v16h16zm24 0v-8h-16v16h16zm24 0v-8h-16v16h16zm48-16v-8h-16v16h16zm304 0v-8h-16v16h16zm24 0v-8h-16v16h16zm24 0v-8h-16v16h16zm40 0v-8h-16v16h16zm72 4v-4h-64v8h64zm-616-24v-4h-64v8h64zm64 0v-4h-56v8h56zm40-4v-8h-16v16h16zm48 0v-8h-24v16h24zm392 0v-8h-16v16h16zm56 4v-4h-48v8h48zm-384-8v-4h-56v8h56zm16-16v-4h-72v8h72zm32 0v-4h-24v8h24zm304 0v-4h-16v8h16zm56 0v-4h-48v8h48zm-624-16v-4h-24v8h24zm72 0v-4h-64v8h64zm128 0v-4h-40v8h40zm344-12v-8h-16v16h16zm72 4v-4h-64v8h64zm-464-16v-12h-24v24h24zm48 8v-4h-40v8h40zm32 0v-4h-24v8h24zm64 0v-4h-56v8h56zm48 0v-4h-40v8h40zm-408-8v-4h-8v8h8zm24-4v-8h-16v16h16zm56 4v-4h-48v8h48zm528-12v-8h-16v16h16zm48 4v-4h-40v8h40zm-648-16v-4h-8v8h8zm88 0v-4h-80v8h80zm144 0v-4h-16v8h16zm48 0v-4h-40v8h40zm40 0v-4h-32v8h32zm336-8v-4h-48v8h48zm-416-16v-12h-24v24h24zm32 0v-12h-24v24h24zm-256-12v-8h-16v16h16zm40 4v-4h-32v8h32zm544-4v-8h-16v16h16zm40 4v-4h-32v8h32zm-432-24v-12h-24v24h24zm32 8v-4h-24v8h24zm48 0v-4h-40v8h40zm56 0v-4h-48v8h48zm-376-20v-16h-32v32h32zm48 8v-8h-16v16h16zm88 4v-4h-80v8h80zm496-4v-8h-16v16h16zm24 4v-4h-16v8h16zm-352-8v-4h-56v8h56zm-256-20v-8h-16v16h16zm32 4v-4h-24v8h24zm552-4v-8h-16v16h16zm64 4v-4h-56v8h56zm-696-28v-16h-32v32h32zm24 4v-4h-8v8h8zm24-4v-8h-16v16h16zm56 4v-4h-48v8h48zm568 0v-4h-32v8h32zm-640-24v-4h-8v8h8zm88 0v-4h-80v8h80zm568 0v-4h-72v8h72zm16 0v-4h-8v8h8zm-704-20v-16h-32v32h32zm48-16v-8h-16v16h16zm48 4v-4h-40v8h40zm144-8v-12h-24v24h24zm392 4v-8h-16v16h16zm80 4v-4h-72v8h72zm-712-28v-16h-32v32h32zm48 0v-8h-16v16h16zm56 4v-4h-48v8h48zm576 0v-4h-40v8h40zm-376-8v-4h-56v8h56zm40 0v-4h-32v8h32zm48 0v-4h-40v8h40zm-368-16v-4h-8v8h8zm24-4v-8h-16v16h16zm32 4v-4h-24v8h24zm192 0v-4h-24v8h24zm72 0v-4h-64v8h64zm288-4v-8h-16v16h16zm64 4v-4h-56v8h56zm-392-16v-4h-56v8h56zm48 0v-4h-40v8h40zm72 0v-4h-64v8h64zm24 0v-4h-16v8h16zm80 0v-4h-72v8h72zm-480-12v-8h-16v16h16zm64 4v-4h-56v8h56zm560 0v-4h-56v8h56zm16 0v-4h-8v8h8zm-400-8v-4h-40v8h40zm-288-28v-16h-32v32h32zm48 8v-8h-16v16h16zm56 4v-4h-48v8h48zm192 0v-4h-48v8h48zm40 0v-4h-32v8h32zm56 0v-4h-48v8h48zm56 0v-4h-48v8h48zm184-12v-8h-16v16h16zm-344-4v-4h-40v8h40zm48 0v-4h-40v8h40zm32 0v-4h-24v8h24zm-336-8v-4h-8v8h8zm88 0v-4h-80v8h80zm200-8v-4h-72v8h72zm56 0v-4h-48v8h48zm24 0v-4h-16v8h16zm304 0v-4h-88v8h88zm16 0v-4h-8v8h8zm-680-36v-8h-16v16h16zm56 4v-4h-48v8h48zm64 0v-4h-56v8h56zm72-4v-8h-16v16h16zm112 4v-4h-104v8h104zm200-4v-8h-16v16h16zm16 4v-4h8v-8h-16v16h8zm32-4v-8h-16v16h16zm128 0v-8h-16v16h16zm24 0v-8h-16v16h16zm-544-4v-4h-16v8h16z" fill="#fb4e23"/>
 <path d="m0 368v-112h8v-48h-8v-48h8v-16h-8v-64h8v-16h-8v-64h800v480h-24v-8h-48v8h-8v-8h-32v8h-8v-16h-16v16h-664zm96 92v-12h-24v24h24zm16 8v-4h-8v8h8zm56 0v-4h-48v8h48zm24-4v-8h-16v16h16zm24 0v-8h-16v16h16zm24 0v-8h-16v16h16zm48-16v-8h-16v16h16zm304 0v-8h-16v16h16zm24 0v-8h-16v16h16zm24 0v-8h-16v16h16zm40 0v-8h-16v16h16zm72 4v-4h-64v8h64zm-616-24v-4h-64v8h64zm64 0v-4h-56v8h56zm40-4v-8h-16v16h16zm48 0v-8h-24v16h24zm392 0v-8h-16v16h16zm56 4v-4h-48v8h48zm-384-8v-4h-56v8h56zm-64-24v-12h-24v24h24zm80 8v-4h-72v8h72zm32 0v-4h-24v8h24zm280-4v-8h-16v16h16zm24 4v-4h-16v8h16zm56 0v-4h-48v8h48zm-624-16v-4h-24v8h24zm72 0v-4h-64v8h64zm128 0v-4h-40v8h40zm344-12v-8h-16v16h16zm72 4v-4h-64v8h64zm-464-16v-12h-24v24h24zm48 8v-4h-40v8h40zm32 0v-4h-24v8h24zm64 0v-4h-56v8h56zm48 0v-4h-40v8h40zm-408-8v-4h-8v8h8zm24-4v-8h-16v16h16zm56 4v-4h-48v8h48zm528-12v-8h-16v16h16zm48 4v-4h-40v8h40zm-648-16v-4h-8v8h8zm88 0v-4h-80v8h80zm144 0v-4h-16v8h16zm48 0v-4h-40v8h40zm40 0v-4h-32v8h32zm280-12v-8h-16v16h16zm56 4v-4h-48v8h48zm-416-16v-12h-24v24h24zm32 0v-12h-24v24h24zm-256-12v-8h-16v16h16zm40 4v-4h-32v8h32zm544-4v-8h-16v16h16zm40 4v-4h-32v8h32zm-432-24v-12h-24v24h24zm32 8v-4h-24v8h24zm48 0v-4h-40v8h40zm56 0v-4h-48v8h48zm-376-20v-16h-32v32h32zm48 8v-8h-16v16h16zm88 4v-4h-80v8h80zm496-4v-8h-16v16h16zm24 4v-4h-16v8h16zm-352-8v-4h-56v8h56zm-256-20v-8h-16v16h16zm32 4v-4h-24v8h24zm552-4v-8h-16v16h16zm64 4v-4h-56v8h56zm-696-28v-16h-32v32h32zm24 4v-4h-8v8h8zm24-4v-8h-16v16h16zm56 4v-4h-48v8h48zm568 0v-4h-32v8h32zm-640-24v-4h-8v8h8zm88 0v-4h-80v8h80zm568 0v-4h-72v8h72zm16 0v-4h-8v8h8zm-704-20v-16h-32v32h32zm48-16v-8h-16v16h16zm48 4v-4h-40v8h40zm144-8v-12h-24v24h24zm392 4v-8h-16v16h16zm80 4v-4h-72v8h72zm-712-28v-16h-32v32h32zm48 0v-8h-16v16h16zm56 4v-4h-48v8h48zm528-4v-8h-16v16h16zm48 4v-4h-40v8h40zm-376-8v-4h-56v8h56zm40 0v-4h-32v8h32zm48 0v-4h-40v8h40zm-368-16v-4h-8v8h8zm24-4v-8h-16v16h16zm32 4v-4h-24v8h24zm192 0v-4h-24v8h24zm72 0v-4h-64v8h64zm288-4v-8h-16v16h16zm64 4v-4h-56v8h56zm-456-24v-12h-24v24h24zm64 8v-4h-56v8h56zm48 0v-4h-40v8h40zm72 0v-4h-64v8h64zm24 0v-4h-16v8h16zm80 0v-4h-72v8h72zm-480-12v-8h-16v16h16zm64 4v-4h-56v8h56zm560 0v-4h-56v8h56zm16 0v-4h-8v8h8zm-400-8v-4h-40v8h40zm-288-28v-16h-32v32h32zm48 8v-8h-16v16h16zm56 4v-4h-48v8h48zm192 0v-4h-48v8h48zm40 0v-4h-32v8h32zm56 0v-4h-48v8h48zm56 0v-4h-48v8h48zm184-12v-8h-16v16h16zm-344-4v-4h-40v8h40zm48 0v-4h-40v8h40zm32 0v-4h-24v8h24zm-336-8v-4h-8v8h8zm88 0v-4h-80v8h80zm200-8v-4h-72v8h72zm56 0v-4h-48v8h48zm24 0v-4h-16v8h16zm304 0v-4h-88v8h88zm16 0v-4h-8v8h8zm-680-36v-8h-16v16h16zm56 4v-4h-48v8h48zm64 0v-4h-56v8h56zm72-4v-8h-16v16h16zm112 4v-4h-104v8h104zm200-4v-8h-16v16h16zm16 4v-4h8v-8h-16v16h8zm32-4v-8h-16v16h16zm128 0v-8h-16v16h16zm24 0v-8h-16v16h16zm-544-4v-4h-16v8h16z" fill="#d53e3e"/>
 <path d="m0 368v-112h8v-48h-8v-48h8v-16h-8v-64h8v-16h-8v-64h800v480h-24v-8h-48v8h-8v-8h-32v8h-8v-16h-16v16h-664zm96 92v-12h-24v24h24zm16 8v-4h-8v8h8zm56 0v-4h-48v8h48zm24-4v-8h-16v16h16zm24 0v-8h-16v16h16zm24 0v-8h-16v16h16zm-88-12v-4h-48v8h48zm136-4v-8h-16v16h16zm304 0v-8h-16v16h16zm24 0v-8h-16v16h16zm24 0v-8h-16v16h16zm40 0v-8h-16v16h16zm72 4v-4h-64v8h64zm-616-24v-4h-64v8h64zm64 0v-4h-56v8h56zm40-4v-8h-16v16h16zm48 0v-8h-24v16h24zm392 0v-8h-16v16h16zm56 4v-4h-48v8h48zm-384-8v-4h-56v8h56zm-64-24v-12h-24v24h24zm80 8v-4h-72v8h72zm32 0v-4h-24v8h24zm280-4v-8h-16v16h16zm24 4v-4h-16v8h16zm56 0v-4h-48v8h48zm-512-16v-12h-176v24h176zm88 0v-4h-40v8h40zm344-12v-8h-16v16h16zm72 4v-4h-64v8h64zm-464-16v-12h-24v24h24zm48 8v-4h-40v8h40zm32 0v-4h-24v8h24zm64 0v-4h-56v8h56zm48 0v-4h-40v8h40zm-408-8v-4h-8v8h8zm24-4v-8h-16v16h16zm56 4v-4h-48v8h48zm184-8v-4h-40v8h40zm344-4v-8h-16v16h16zm48 4v-4h-40v8h40zm-648-16v-4h-8v8h8zm88 0v-4h-80v8h80zm144 0v-4h-16v8h16zm48 0v-4h-40v8h40zm40 0v-4h-32v8h32zm280-12v-8h-16v16h16zm56 4v-4h-48v8h48zm-416-16v-12h-24v24h24zm32 0v-12h-24v24h24zm-256-12v-8h-16v16h16zm40 4v-4h-32v8h32zm544-4v-8h-16v16h16zm40 4v-4h-32v8h32zm-432-24v-12h-24v24h24zm32 8v-4h-24v8h24zm48 0v-4h-40v8h40zm56 0v-4h-48v8h48zm-376-20v-16h-32v32h32zm48 8v-8h-16v16h16zm88 4v-4h-80v8h80zm496-4v-8h-16v16h16zm24 4v-4h-16v8h16zm-352-8v-4h-56v8h56zm-256-20v-8h-16v16h16zm32 4v-4h-24v8h24zm552-4v-8h-16v16h16zm64 4v-4h-56v8h56zm-696-28v-16h-32v32h32zm24 4v-4h-8v8h8zm24-4v-8h-16v16h16zm56 4v-4h-48v8h48zm568 0v-4h-32v8h32zm-640-24v-4h-8v8h8zm88 0v-4h-80v8h80zm568 0v-4h-72v8h72zm16 0v-4h-8v8h8zm-704-20v-16h-32v32h32zm48-16v-8h-16v16h16zm48 4v-4h-40v8h40zm144-8v-12h-24v24h24zm392 4v-8h-16v16h16zm80 4v-4h-72v8h72zm-712-28v-16h-32v32h32zm288 12v-4h-40v8h40zm-240-12v-8h-16v16h16zm56 4v-4h-48v8h48zm528-4v-8h-16v16h16zm48 4v-4h-40v8h40zm-376-8v-4h-56v8h56zm40 0v-4h-32v8h32zm48 0v-4h-40v8h40zm-368-16v-4h-8v8h8zm24-4v-8h-16v16h16zm32 4v-4h-24v8h24zm192 0v-4h-24v8h24zm72 0v-4h-64v8h64zm288-4v-8h-16v16h16zm64 4v-4h-56v8h56zm-456-24v-12h-24v24h24zm64 8v-4h-56v8h56zm48 0v-4h-40v8h40zm72 0v-4h-64v8h64zm24 0v-4h-16v8h16zm80 0v-4h-72v8h72zm-480-12v-8h-16v16h16zm64 4v-4h-56v8h56zm560 0v-4h-56v8h56zm16 0v-4h-8v8h8zm-400-8v-4h-40v8h40zm-288-28v-16h-32v32h32zm48 8v-8h-16v16h16zm56 4v-4h-48v8h48zm192 0v-4h-48v8h48zm40 0v-4h-32v8h32zm56 0v-4h-48v8h48zm56 0v-4h-48v8h48zm184-12v-8h-16v16h16zm48 4v-4h-40v8h40zm-392-8v-4h-40v8h40zm48 0v-4h-40v8h40zm32 0v-4h-24v8h24zm-336-8v-4h-8v8h8zm88 0v-4h-80v8h80zm200-8v-4h-72v8h72zm56 0v-4h-48v8h48zm24 0v-4h-16v8h16zm304 0v-4h-88v8h88zm16 0v-4h-8v8h8zm-680-36v-8h-16v16h16zm56 4v-4h-48v8h48zm64 0v-4h-56v8h56zm72-4v-8h-16v16h16zm112 4v-4h-104v8h104zm200-4v-8h-16v16h16zm24 0v-8h-16v16h16zm24 0v-8h-16v16h16zm128 0v-8h-16v16h16zm24 0v-8h-16v16h16zm-544-4v-4h-16v8h16z" fill="#595b60"/>
 <path d="m0 368v-112h8v-48h-8v-48h8v-16h-8v-64h8v-16h-8v-64h800v480h-24v-8h-48v8h-8v-8h-32v8h-8v-16h-16v16h-664zm96 92v-12h-24v24h24zm16 8v-4h-8v8h8zm56 0v-4h-48v8h48zm24-4v-8h-16v16h16zm24 0v-8h-16v16h16zm24 0v-8h-16v16h16zm-88-12v-4h-48v8h48zm136-4v-8h-16v16h16zm64 4v-4h-56v8h56zm40 0v-4h-32v8h32zm200-4v-8h-16v16h16zm24 0v-8h-16v16h16zm24 0v-8h-16v16h16zm40 0v-8h-16v16h16zm72 4v-4h-64v8h64zm-616-24v-4h-64v8h64zm64 0v-4h-56v8h56zm40-4v-8h-16v16h16zm48 0v-8h-24v16h24zm392 0v-8h-16v16h16zm56 4v-4h-48v8h48zm-384-8v-4h-56v8h56zm24 0v-4h-16v8h16zm-288-8v-4h-16v8h16zm64 0v-4h-56v8h56zm136-16v-12h-24v24h24zm80 8v-4h-72v8h72zm32 0v-4h-24v8h24zm280-4v-8h-16v16h16zm24 4v-4h-16v8h16zm56 0v-4h-48v8h48zm-512-16v-12h-176v24h176zm88 0v-4h-40v8h40zm24 0v-4h-16v8h16zm320-12v-8h-16v16h16zm72 4v-4h-64v8h64zm-464-16v-12h-24v24h24zm48 8v-4h-40v8h40zm32 0v-4h-24v8h24zm64 0v-4h-56v8h56zm48 0v-4h-40v8h40zm-408-8v-4h-8v8h8zm24-4v-8h-16v16h16zm56 4v-4h-48v8h48zm184-8v-4h-40v8h40zm24 0v-4h-16v8h16zm320-4v-8h-16v16h16zm48 4v-4h-40v8h40zm-648-16v-4h-8v8h8zm88 0v-4h-80v8h80zm144 0v-4h-16v8h16zm48 0v-4h-40v8h40zm40 0v-4h-32v8h32zm280-12v-8h-16v16h16zm56 4v-4h-48v8h48zm-416-16v-12h-24v24h24zm32 0v-12h-24v24h24zm-256-12v-8h-16v16h16zm40 4v-4h-32v8h32zm544-4v-8h-16v16h16zm40 4v-4h-32v8h32zm-432-24v-12h-24v24h24zm32 8v-4h-24v8h24zm48 0v-4h-40v8h40zm56 0v-4h-48v8h48zm-376-20v-16h-32v32h32zm48 8v-8h-16v16h16zm88 4v-4h-80v8h80zm496-4v-8h-16v16h16zm24 4v-4h-16v8h16zm-352-8v-4h-56v8h56zm24 0v-4h-16v8h16zm-280-20v-8h-16v16h16zm32 4v-4h-24v8h24zm552-4v-8h-16v16h16zm64 4v-4h-56v8h56zm-696-28v-16h-32v32h32zm24 4v-4h-8v8h8zm24-4v-8h-16v16h16zm56 4v-4h-48v8h48zm528-4v-8h-16v16h16zm40 4v-4h-32v8h32zm-640-24v-4h-8v8h8zm88 0v-4h-80v8h80zm568 0v-4h-72v8h72zm16 0v-4h-8v8h8zm-704-20v-16h-32v32h32zm48-16v-8h-16v16h16zm48 4v-4h-40v8h40zm144-8v-12h-24v24h24zm392 4v-8h-16v16h16zm80 4v-4h-72v8h72zm-712-28v-16h-32v32h32zm288 12v-4h-40v8h40zm24 0v-4h-16v8h16zm-264-12v-8h-16v16h16zm56 4v-4h-48v8h48zm528-4v-8h-16v16h16zm48 4v-4h-40v8h40zm-376-8v-4h-56v8h56zm40 0v-4h-32v8h32zm48 0v-4h-40v8h40zm-368-16v-4h-8v8h8zm24-4v-8h-16v16h16zm32 4v-4h-24v8h24zm192 0v-4h-24v8h24zm72 0v-4h-64v8h64zm288-4v-8h-16v16h16zm64 4v-4h-56v8h56zm-696-20v-16h-32v32h32zm240-4v-12h-24v24h24zm64 8v-4h-56v8h56zm48 0v-4h-40v8h40zm72 0v-4h-64v8h64zm24 0v-4h-16v8h16zm80 0v-4h-72v8h72zm-480-12v-8h-16v16h16zm64 4v-4h-56v8h56zm560 0v-4h-56v8h56zm16 0v-4h-8v8h8zm-400-8v-4h-40v8h40zm24 0v-4h-16v8h16zm-312-28v-16h-32v32h32zm48 8v-8h-16v16h16zm56 4v-4h-48v8h48zm192 0v-4h-48v8h48zm40 0v-4h-32v8h32zm56 0v-4h-48v8h48zm56 0v-4h-48v8h48zm184-12v-8h-16v16h16zm48 4v-4h-40v8h40zm-392-8v-4h-40v8h40zm48 0v-4h-40v8h40zm32 0v-4h-24v8h24zm-336-8v-4h-8v8h8zm88 0v-4h-80v8h80zm200-8v-4h-72v8h72zm56 0v-4h-48v8h48zm24 0v-4h-16v8h16zm304 0v-4h-88v8h88zm16 0v-4h-8v8h8zm-680-36v-8h-16v16h16zm56 4v-4h-48v8h48zm64 0v-4h-56v8h56zm72-4v-8h-16v16h16zm112 4v-4h-104v8h104zm64 0v-4h-56v8h56zm40 0v-4h-32v8h32zm72 0v-4h-64v8h64zm24-4v-8h-16v16h16zm24 0v-8h-16v16h16zm24 0v-8h-16v16h16zm128 0v-8h-16v16h16zm24 0v-8h-16v16h16zm-544-4v-4h-16v8h16z" fill="#3e454a"/>
 <path d="m0 368v-112h8v-48h-8v-48h8v-16h-8v-64h8v-16h-8v-64h800v480h-24v-8h-48v8h-8v-8h-32v8h-8v-16h-16v16h-664zm96 92v-12h-24v24h24zm16 8v-4h-8v8h8zm56 0v-4h-48v8h48zm24-4v-8h-16v16h16zm24 0v-8h-16v16h16zm24 0v-8h-16v16h16zm408-16v-16h-360v-16h-24v48h384zm-496 4v-4h-48v8h48zm528-4v-8h-16v16h16zm72 4v-4h-64v8h64zm-616-24v-4h-64v8h64zm64 0v-4h-56v8h56zm40-4v-8h-16v16h16zm440 0v-8h-16v16h16zm56 4v-4h-48v8h48zm-384-8v-4h-56v8h56zm24 0v-4h-16v8h16zm-288-8v-4h-16v8h16zm64 0v-4h-56v8h56zm136-16v-12h-24v24h24zm80 8v-4h-72v8h72zm32 0v-4h-24v8h24zm280-4v-8h-16v16h16zm24 4v-4h-16v8h16zm56 0v-4h-48v8h48zm-512-16v-12h-176v24h176zm88 0v-4h-40v8h40zm24 0v-4h-16v8h16zm320-12v-8h-16v16h16zm72 4v-4h-64v8h64zm-464-16v-12h-24v24h24zm48 8v-4h-40v8h40zm32 0v-4h-24v8h24zm64 0v-4h-56v8h56zm48 0v-4h-40v8h40zm-408-8v-4h-8v8h8zm24-4v-8h-16v16h16zm56 4v-4h-48v8h48zm184-8v-4h-40v8h40zm24 0v-4h-16v8h16zm320-4v-8h-16v16h16zm48 4v-4h-40v8h40zm-648-16v-4h-8v8h8zm88 0v-4h-80v8h80zm144 0v-4h-16v8h16zm48 0v-4h-40v8h40zm40 0v-4h-32v8h32zm280-12v-8h-16v16h16zm56 4v-4h-48v8h48zm-416-16v-12h-24v24h24zm32 0v-12h-24v24h24zm-256-12v-8h-16v16h16zm40 4v-4h-32v8h32zm544-4v-8h-16v16h16zm40 4v-4h-32v8h32zm-432-24v-12h-24v24h24zm32 8v-4h-24v8h24zm48 0v-4h-40v8h40zm56 0v-4h-48v8h48zm-376-20v-16h-32v32h32zm48 8v-8h-16v16h16zm88 4v-4h-80v8h80zm496-4v-8h-16v16h16zm24 4v-4h-16v8h16zm-352-8v-4h-56v8h56zm24 0v-4h-16v8h16zm-280-20v-8h-16v16h16zm32 4v-4h-24v8h24zm552-4v-8h-16v16h16zm64 4v-4h-56v8h56zm-696-28v-16h-32v32h32zm24 4v-4h-8v8h8zm24-4v-8h-16v16h16zm56 4v-4h-48v8h48zm528-4v-8h-16v16h16zm40 4v-4h-32v8h32zm-640-24v-4h-8v8h8zm88 0v-4h-80v8h80zm568 0v-4h-72v8h72zm16 0v-4h-8v8h8zm-704-20v-16h-32v32h32zm48-16v-8h-16v16h16zm48 4v-4h-40v8h40zm144-8v-12h-24v24h24zm392 4v-8h-16v16h16zm80 4v-4h-72v8h72zm-712-28v-16h-32v32h32zm288 12v-4h-40v8h40zm24 0v-4h-16v8h16zm-264-12v-8h-16v16h16zm56 4v-4h-48v8h48zm528-4v-8h-16v16h16zm48 4v-4h-40v8h40zm-376-8v-4h-56v8h56zm40 0v-4h-32v8h32zm48 0v-4h-40v8h40zm-368-16v-4h-8v8h8zm24-4v-8h-16v16h16zm32 4v-4h-24v8h24zm192 0v-4h-24v8h24zm72 0v-4h-64v8h64zm288-4v-8h-16v16h16zm64 4v-4h-56v8h56zm-696-20v-16h-32v32h32zm240-4v-12h-24v24h24zm64 8v-4h-56v8h56zm48 0v-4h-40v8h40zm72 0v-4h-64v8h64zm24 0v-4h-16v8h16zm80 0v-4h-72v8h72zm-480-12v-8h-16v16h16zm64 4v-4h-56v8h56zm560 0v-4h-56v8h56zm16 0v-4h-8v8h8zm-400-8v-4h-40v8h40zm24 0v-4h-16v8h16zm-312-28v-16h-32v32h32zm48 8v-8h-16v16h16zm56 4v-4h-48v8h48zm192 0v-4h-48v8h48zm40 0v-4h-32v8h32zm56 0v-4h-48v8h48zm56 0v-4h-48v8h48zm184-12v-8h-16v16h16zm48 4v-4h-40v8h40zm-392-8v-4h-40v8h40zm48 0v-4h-40v8h40zm32 0v-4h-24v8h24zm-336-8v-4h-8v8h8zm88 0v-4h-80v8h80zm200-8v-4h-72v8h72zm56 0v-4h-48v8h48zm24 0v-4h-16v8h16zm304 0v-4h-88v8h88zm16 0v-4h-8v8h8zm-680-36v-8h-16v16h16zm56 4v-4h-48v8h48zm64 0v-4h-56v8h56zm72-4v-8h-16v16h16zm112 4v-4h-104v8h104zm64 0v-4h-56v8h56zm40 0v-4h-32v8h32zm72 0v-4h-64v8h64zm24-4v-8h-16v16h16zm24 0v-8h-16v16h16zm24 0v-8h-16v16h16zm128 0v-8h-16v16h16zm24 0v-8h-16v16h16zm-544-4v-4h-16v8h16z" fill="#383b42"/>
 <path d="m0 368v-112h8v-48h-8v-48h8v-16h-8v-64h8v-16h-8v-64h800v480h-24v-8h-48v8h-8v-8h-32v8h-8v-16h-16v16h-664zm96 92v-12h-24v24h24zm16 8v-4h-8v8h8zm56 0v-4h-48v8h48zm24-4v-8h-16v16h16zm24 0v-8h-16v16h16zm24 0v-8h-16v16h16zm408-16v-16h-360v-16h-24v48h384zm-496 4v-4h-48v8h48zm528-4v-8h-16v16h16zm72 4v-4h-64v8h64zm-616-24v-4h-64v8h64zm64 0v-4h-56v8h56zm40-4v-8h-16v16h16zm440 0v-8h-16v16h16zm56 4v-4h-48v8h48zm-384-8v-4h-56v8h56zm24 0v-4h-16v8h16zm-288-8v-4h-16v8h16zm64 0v-4h-56v8h56zm136-16v-12h-24v24h24zm80 8v-4h-72v8h72zm32 0v-4h-24v8h24zm280-4v-8h-16v16h16zm24 4v-4h-16v8h16zm56 0v-4h-48v8h48zm-512-16v-12h-176v24h176zm88 0v-4h-40v8h40zm24 0v-4h-16v8h16zm320-12v-8h-16v16h16zm72 4v-4h-64v8h64zm-464-16v-12h-24v24h24zm48 8v-4h-40v8h40zm32 0v-4h-24v8h24zm64 0v-4h-56v8h56zm48 0v-4h-40v8h40zm-408-8v-4h-8v8h8zm24-4v-8h-16v16h16zm56 4v-4h-48v8h48zm184-8v-4h-40v8h40zm24 0v-4h-16v8h16zm320-4v-8h-16v16h16zm48 4v-4h-40v8h40zm-648-16v-4h-8v8h8zm88 0v-4h-80v8h80zm144 0v-4h-16v8h16zm48 0v-4h-40v8h40zm40 0v-4h-32v8h32zm280-12v-8h-16v16h16zm56 4v-4h-48v8h48zm-416-16v-12h-24v24h24zm32 0v-12h-24v24h24zm-256-12v-8h160v-32h-128v-8h-24v8h-8v-16h-16v16h-16v32h16v16h16zm40 4v-4h-32v8h32zm544-4v-8h-16v16h16zm40 4v-4h-32v8h32zm-432-24v-12h-24v24h24zm32 8v-4h-24v8h24zm48 0v-4h-40v8h40zm56 0v-4h-48v8h48zm-376-20v-16h-32v32h32zm632 8v-8h-16v16h16zm24 4v-4h-16v8h16zm-352-8v-4h-56v8h56zm24 0v-4h-16v8h16zm304-20v-8h-16v16h16zm64 4v-4h-56v8h56zm-696-28v-16h-32v32h32zm24 4v-4h-8v8h8zm24-4v-8h-16v16h16zm56 4v-4h-48v8h48zm528-4v-8h-16v16h16zm40 4v-4h-32v8h32zm-640-24v-4h-8v8h8zm88 0v-4h-80v8h80zm568 0v-4h-72v8h72zm16 0v-4h-8v8h8zm-704-20v-16h-32v32h32zm48-16v-8h-16v16h16zm48 4v-4h-40v8h40zm144-8v-12h-24v24h24zm392 4v-8h-16v16h16zm80 4v-4h-72v8h72zm-712-28v-16h-32v32h32zm288 12v-4h-40v8h40zm24 0v-4h-16v8h16zm-264-12v-8h-16v16h16zm56 4v-4h-48v8h48zm528-4v-8h-16v16h16zm48 4v-4h-40v8h40zm-376-8v-4h-56v8h56zm40 0v-4h-32v8h32zm48 0v-4h-40v8h40zm-368-16v-4h-8v8h8zm24-4v-8h-16v16h16zm32 4v-4h-24v8h24zm192 0v-4h-24v8h24zm72 0v-4h-64v8h64zm288-4v-8h-16v16h16zm64 4v-4h-56v8h56zm-696-20v-16h-32v32h32zm240-4v-12h-24v24h24zm64 8v-4h-56v8h56zm48 0v-4h-40v8h40zm72 0v-4h-64v8h64zm24 0v-4h-16v8h16zm80 0v-4h-72v8h72zm-480-12v-8h-16v16h16zm64 4v-4h-56v8h56zm560 0v-4h-56v8h56zm16 0v-4h-8v8h8zm-400-8v-4h-40v8h40zm24 0v-4h-16v8h16zm-312-28v-16h-32v32h32zm48 8v-8h-16v16h16zm56 4v-4h-48v8h48zm192 0v-4h-48v8h48zm40 0v-4h-32v8h32zm56 0v-4h-48v8h48zm56 0v-4h-48v8h48zm184-12v-8h-16v16h16zm48 4v-4h-40v8h40zm-392-8v-4h-40v8h40zm48 0v-4h-40v8h40zm32 0v-4h-24v8h24zm-336-8v-4h-8v8h8zm88 0v-4h-80v8h80zm200-8v-4h-72v8h72zm56 0v-4h-48v8h48zm24 0v-4h-16v8h16zm304 0v-4h-88v8h88zm16 0v-4h-8v8h8zm-680-36v-8h-16v16h16zm56 4v-4h-48v8h48zm64 0v-4h-56v8h56zm72-4v-8h-16v16h16zm112 4v-4h-104v8h104zm64 0v-4h-56v8h56zm40 0v-4h-32v8h32zm72 0v-4h-64v8h64zm24-4v-8h-16v16h16zm24 0v-8h-16v16h16zm24 0v-8h-16v16h16zm128 0v-8h-16v16h16zm24 0v-8h-16v16h16zm-544-4v-4h-16v8h16z" fill="#35383e"/>
 <path d="m0 368v-112h8v-48h-8v-48h8v-16h-8v-64h8v-16h-8v-64h256v32h544v448h-24v-8h-48v8h-8v-8h-32v8h-8v-16h-16v16h-8v-440h-400v224h-128v-8h-24v8h-8v-16h-16v16h-16v32h16v16h16v-16h160v184h-256zm96 92v-12h-24v24h24zm16 8v-4h-8v8h8zm56 0v-4h-48v8h48zm24-4v-8h-16v16h16zm24 0v-8h-16v16h16zm24 0v-8h-16v16h16zm-88-12v-4h-48v8h48zm528-4v-8h-16v16h16zm72 4v-4h-64v8h64zm-616-24v-4h-64v8h64zm64 0v-4h-56v8h56zm40-4v-8h-16v16h16zm440 0v-8h-16v16h16zm56 4v-4h-48v8h48zm-648-16v-4h-16v8h16zm64 0v-4h-56v8h56zm528-12v-8h-16v16h16zm24 4v-4h-16v8h16zm56 0v-4h-48v8h48zm-512-16v-12h-176v24h176zm432-12v-8h-16v16h16zm72 4v-4h-64v8h64zm-680-16v-4h-8v8h8zm24-4v-8h-16v16h16zm56 4v-4h-48v8h48zm528-12v-8h-16v16h16zm48 4v-4h-40v8h40zm-648-16v-4h-8v8h8zm88 0v-4h-80v8h80zm512-12v-8h-16v16h16zm56 4v-4h-48v8h48zm-600-24v-4h-32v8h32zm544-4v-8h-16v16h16zm40 4v-4h-32v8h32zm-672-36v-16h-32v32h32zm632 8v-8h-16v16h16zm24 4v-4h-16v8h16zm-24-28v-8h-16v16h16zm64 4v-4h-56v8h56zm-696-28v-16h-32v32h32zm24 4v-4h-8v8h8zm24-4v-8h-16v16h16zm56 4v-4h-48v8h48zm528-4v-8h-16v16h16zm40 4v-4h-32v8h32zm-640-24v-4h-8v8h8zm88 0v-4h-80v8h80zm568 0v-4h-72v8h72zm16 0v-4h-8v8h8zm-704-20v-16h-32v32h32zm48-16v-8h-16v16h16zm48 4v-4h-40v8h40zm536-4v-8h-16v16h16zm80 4v-4h-72v8h72zm-712-28v-16h-32v32h32zm48 0v-8h-16v16h16zm56 4v-4h-48v8h48zm528-4v-8h-16v16h16zm48 4v-4h-40v8h40zm-656-24v-4h-8v8h8zm24-4v-8h-16v16h16zm32 4v-4h-24v8h24zm552-4v-8h-16v16h16zm64 4v-4h-56v8h56zm-696-20v-16h-32v32h32zm48-8v-8h-16v16h16zm64 4v-4h-56v8h56zm560 0v-4h-56v8h56zm16 0v-4h-8v8h8zm-688-36v-16h-32v32h32zm48 8v-8h-16v16h16zm56 4v-4h-48v8h48zm528-12v-8h-16v16h16zm48 4v-4h-40v8h40zm-648-16v-4h-8v8h8zm88 0v-4h-80v8h80zm584-8v-4h-88v8h88zm16 0v-4h-8v8h8zm-720-20v-16h-32v32h32zm40-16v-8h-16v16h16zm56 4v-4h-48v8h48zm64 0v-4h-56v8h56zm40-8v-4h-16v8h16zm392 224v-188h8v376h-8zm-344-16v-44h160v88h-160zm368-204v-8h80v16h-80z" fill="#2e3035"/>
 <path d="m0 368v-112h8v-48h-8v-48h8v-16h-8v-64h8v-16h-8v-64h64v32h736v8h-736v360h192v80h-256zm96 92v-12h-24v24h24zm16 8v-4h-8v8h8zm56 0v-4h-48v8h48zm24-4v-8h-16v16h16zm24 0v-8h-16v16h16zm24 0v-8h-16v16h16zm-88-12v-4h-48v8h48zm-16-24v-4h-64v8h64zm64 0v-4h-56v8h56zm40-4v-8h-16v16h16zm-152-12v-4h-16v8h16zm64 0v-4h-56v8h56zm-104-140v-16h-32v32h32zm0-40v-16h-32v32h32zm0-40v-16h-32v32h32zm0-40v-16h-32v32h32zm0-40v-16h-32v32h32zm0-40v-16h-32v32h32zm0-40v-16h-32v32h32zm592 372v-20h8v40h-8zm-400-336v-20h8v40h-8zm424-52v-8h80v16h-80z" fill="#282a2e"/>
 <path d="m0 368v-112h8v-48h-8v-48h8v-16h-8v-64h8v-16h-8v-64h64v32h736v8h-736v440h-64zm48-96v-16h-32v32h32zm0-40v-16h-32v32h32zm0-40v-16h-32v32h32zm0-40v-16h-32v32h32zm0-40v-16h-32v32h32zm0-40v-16h-32v32h32zm0-40v-16h-32v32h32zm592 372v-20h8v40h-8zm-400-336v-20h8v40h-8zm424-52v-8h80v16h-80z" fill="#1f2124"/>
</svg>
